# xmcd CD database file
#
# Track frame offsets:
#	150
#	14633
#	25138
#	37544
#	51028
#	64170
#	77334
#	94677
#	105841
#	118579
#	136076
#	147777
#	159773
#	180117
#	192338
#	211685
#	228698
#	249433
#	269925
#	282976
#	306418
#	318233
#	333147
#
# Disc length: 4635 seconds
#
# Revision: 0
# Processed by: cddbd v1.5.2PL0 Copyright (c) Steve Scherf et al.
# Submitted via: CDex 1.70beta2
#
DISCID=29121917
DTITLE=Johnny Dankworth - The Best Of Johnny Dankworth [EMI Gold] [CD2 of 2)
DYEAR=1900
DGENRE=Jazz
TTITLE0=It's The Talk Of The Town
TTITLE1=Get Happy
TTITLE2=Four Of A Kind
TTITLE3=I Got Rhythm
TTITLE4=Younger Every Day
TTITLE5=You Go To My Head
TTITLE6=How Deep Is The Ocean?
TTITLE7=The Colonel's Tune
TTITLE8=Melbourne Marathon
TTITLE9=I Can't Get Started
TTITLE10=Jim And Andy's
TTITLE11=I Got It Bad And That Ain't Good
TTITLE12=Honeydew Melon
TTITLE13=Memories Of You
TTITLE14=Kool Kate
TTITLE15=Desperate Dan
TTITLE16=Joe And Lol's Blues
TTITLE17=Export Blues
TTITLE18=Easy Living
TTITLE19=Swingin' The Blues
TTITLE20=Runnin' Wild
TTITLE21=The Breeze And I
TTITLE22=Big Jazz Story
EXTD=
EXTT0=
EXTT1=
EXTT2=
EXTT3=
EXTT4=
EXTT5=
EXTT6=
EXTT7=
EXTT8=
EXTT9=
EXTT10=
EXTT11=
EXTT12=
EXTT13=
EXTT14=
EXTT15=
EXTT16=
EXTT17=
EXTT18=
EXTT19=
EXTT20=
EXTT21=
EXTT22=
PLAYORDER=
